<svg id="svg" version="1.1" xmlns="http://www.w3.org/2000/svg" xmlns:xlink="http://www.w3.org/1999/xlink" width="400" height="400" viewBox="0, 0, 400,400"><g id="svgg"><path id="path0" d="M0.000 200.000 L 0.000 400.000 200.000 400.000 L 400.000 400.000 400.000 200.000 L 400.000 0.000 200.000 0.000 L 0.000 0.000 0.000 200.000 M314.359 68.066 C 314.894 68.731,315.284 91.226,314.784 92.541 C 314.575 93.089,312.245 95.650,309.604 98.233 L 304.804 102.930 304.326 107.227 C 304.063 109.590,303.693 121.016,303.504 132.617 C 302.994 163.851,302.658 166.339,297.606 176.301 C 293.580 184.239,287.007 190.452,279.339 193.568 C 275.838 194.991,275.403 194.905,275.332 192.773 C 275.300 191.807,275.256 190.805,275.234 190.547 C 275.213 190.289,277.094 189.073,279.414 187.844 C 291.237 181.584,296.468 172.455,297.693 155.943 C 298.110 150.316,297.815 115.500,297.283 107.617 L 296.993 103.320 293.701 99.978 C 291.890 98.140,289.840 95.777,289.144 94.727 L 287.880 92.819 287.983 80.491 L 288.086 68.164 290.561 68.047 C 294.176 67.876,293.982 67.297,294.293 79.197 L 294.565 89.648 297.922 92.862 L 301.280 96.076 303.081 94.554 C 304.072 93.717,305.710 92.183,306.721 91.145 L 308.560 89.258 308.675 78.794 C 308.771 70.004,308.883 68.271,309.375 67.960 C 310.237 67.416,313.899 67.494,314.359 68.066 M217.383 79.277 C 228.943 80.859,232.838 81.831,241.868 85.386 C 262.724 93.598,278.647 105.643,291.748 123.116 L 293.410 125.334 293.265 142.843 C 293.138 158.037,293.029 160.661,292.439 162.695 C 290.395 169.738,285.159 179.356,285.155 176.074 C 285.155 175.591,284.711 173.525,284.169 171.484 C 272.792 128.628,237.748 103.491,193.772 106.640 C 174.394 108.028,154.728 116.226,142.572 127.984 L 140.417 130.069 130.853 120.536 C 125.593 115.293,121.238 110.756,121.176 110.454 C 121.051 109.845,127.373 104.417,133.398 99.961 C 156.841 82.624,187.202 75.147,217.383 79.277 M124.542 120.828 C 128.339 124.549,132.632 128.708,134.082 130.070 C 136.870 132.688,137.113 133.175,136.065 134.034 C 135.027 134.885,130.429 141.256,127.925 145.313 C 106.243 180.446,112.903 225.381,143.532 250.600 C 159.964 264.130,174.752 270.503,193.164 271.989 L 199.023 272.463 199.126 286.289 L 199.229 300.116 195.025 299.846 C 148.607 296.869,106.212 264.173,92.911 221.094 C 82.554 187.551,89.623 150.029,111.676 121.483 C 116.487 115.256,117.396 114.103,117.510 114.084 C 117.580 114.072,120.745 117.107,124.542 120.828 M209.687 132.484 C 209.824 134.582,209.521 134.752,205.621 134.760 L 203.234 134.766 203.023 137.083 C 202.760 139.982,202.599 140.234,201.005 140.234 C 199.617 140.234,199.234 139.332,199.223 136.035 L 199.219 134.766 196.321 134.766 C 192.433 134.766,192.188 134.640,192.188 132.640 C 192.188 130.433,191.529 130.581,201.080 130.641 L 209.570 130.694 209.687 132.484 M193.619 138.072 C 195.327 138.393,195.253 139.012,193.343 140.363 C 191.537 141.641,190.322 143.780,189.979 146.288 L 189.738 148.047 182.225 148.047 L 174.712 148.047 174.469 149.512 C 174.336 150.317,174.225 152.075,174.223 153.418 L 174.219 155.859 172.656 155.859 C 170.825 155.859,171.020 157.081,170.940 145.117 L 170.888 137.305 181.602 137.566 C 187.495 137.710,192.903 137.938,193.619 138.072 M231.252 142.676 C 231.253 145.737,231.368 149.956,231.506 152.051 L 231.758 155.859 230.179 155.859 C 228.234 155.859,228.125 155.618,228.125 151.335 L 228.125 148.047 220.168 148.047 L 212.210 148.047 211.960 146.164 C 211.649 143.816,209.914 141.022,208.055 139.873 C 205.255 138.142,206.552 137.888,220.117 137.512 C 225.488 137.364,230.190 137.212,230.566 137.176 C 231.188 137.115,231.250 137.610,231.252 142.676 M204.143 142.343 C 206.459 143.421,207.813 145.630,207.813 148.334 C 207.813 151.286,208.098 151.172,200.739 151.172 L 194.141 151.172 194.141 149.147 C 194.141 143.350,199.085 139.987,204.143 142.343 M258.400 153.295 C 261.155 155.397,261.328 156.204,261.328 166.977 L 261.328 176.563 258.203 176.563 L 255.078 176.563 255.078 174.654 C 255.078 168.173,250.003 164.844,240.123 164.844 L 235.454 164.844 235.739 161.045 C 236.055 156.825,236.372 155.701,237.624 154.359 C 239.172 152.698,239.860 152.545,246.875 152.307 C 256.130 151.992,256.763 152.047,258.400 153.295 M163.118 153.145 C 164.848 154.214,165.859 155.959,166.372 158.763 C 166.751 160.830,166.956 164.412,166.699 164.478 C 166.646 164.492,163.930 164.643,160.666 164.813 C 150.847 165.324,147.718 167.636,146.685 175.140 C 146.428 177.009,146.405 177.035,145.233 176.801 C 144.579 176.670,143.265 176.563,142.315 176.563 L 140.587 176.563 140.704 166.670 L 140.820 156.777 141.855 155.214 C 143.620 152.549,144.389 152.363,153.665 152.353 C 161.216 152.344,161.918 152.403,163.118 153.145 M146.582 153.774 C 142.931 155.252,153.029 156.353,160.059 155.243 C 161.361 155.038,161.684 154.563,160.866 154.057 C 160.338 153.731,147.325 153.473,146.582 153.774 M241.186 154.025 C 240.685 155.332,241.369 155.468,248.167 155.416 C 255.578 155.360,256.250 155.281,256.250 154.466 C 256.250 154.018,255.482 153.906,252.404 153.906 C 250.288 153.906,246.953 153.792,244.992 153.653 C 241.932 153.436,241.392 153.489,241.186 154.025 M214.638 154.854 C 224.197 156.624,227.209 160.310,222.619 164.620 C 220.404 166.700,220.283 166.901,220.879 167.510 C 221.232 167.870,221.759 168.512,222.051 168.937 C 222.556 169.673,223.153 169.717,234.630 169.861 C 249.049 170.042,249.607 170.249,250.062 175.586 L 250.195 177.148 247.852 177.376 C 243.139 177.835,237.500 183.952,237.500 188.607 C 237.500 189.908,236.300 189.631,228.636 186.563 C 225.240 185.204,221.268 183.689,219.809 183.199 L 217.157 182.306 217.401 180.509 C 218.161 174.904,220.783 172.475,227.441 171.209 C 230.167 170.691,228.241 170.239,223.926 170.385 C 217.582 170.599,215.204 172.092,213.321 177.043 C 212.010 180.491,211.738 194.316,212.480 219.701 C 212.964 236.266,213.080 235.439,210.210 235.824 L 208.594 236.040 208.594 231.497 L 208.594 226.953 207.305 226.953 C 205.534 226.953,205.078 227.557,205.078 229.903 C 205.078 236.758,197.774 237.545,197.341 230.737 C 197.162 227.921,196.673 227.177,194.613 226.586 C 193.079 226.146,192.969 226.432,192.969 230.866 C 192.969 235.973,191.738 237.776,189.665 235.703 C 188.981 235.019,189.080 222.094,189.870 208.991 C 191.640 179.623,187.496 166.993,177.091 170.039 L 175.195 170.594 176.563 170.892 C 181.282 171.919,183.778 174.859,184.257 179.959 C 184.484 182.377,184.483 182.380,183.355 182.643 C 181.608 183.050,172.939 186.207,168.984 187.875 C 163.340 190.256,163.847 190.326,162.879 187.031 C 161.028 180.731,157.199 176.965,152.637 176.955 C 150.468 176.951,151.640 172.998,154.422 170.934 C 155.457 170.166,156.176 170.103,166.336 169.883 C 177.163 169.648,178.563 169.471,180.762 168.054 C 182.005 167.253,181.909 167.013,179.413 164.690 C 174.166 159.805,178.184 156.181,190.713 154.499 C 196.161 153.767,209.866 153.971,214.638 154.854 M309.376 160.716 C 316.369 187.110,313.926 213.898,302.525 235.845 C 282.520 274.355,249.141 296.573,206.411 299.821 L 202.861 300.091 202.603 293.307 C 202.462 289.576,202.346 283.315,202.345 279.395 L 202.344 272.266 204.395 272.265 C 243.709 272.259,282.094 238.040,285.009 200.400 C 285.314 196.461,285.353 196.387,288.168 194.324 C 299.612 185.938,306.255 173.518,307.267 158.616 C 307.581 153.998,307.602 154.019,309.376 160.716 M188.268 159.386 C 181.452 160.184,180.335 163.192,186.606 163.860 C 189.786 164.199,190.622 164.589,190.634 165.736 C 190.661 168.455,193.140 171.094,195.669 171.094 C 196.127 171.094,196.651 171.531,196.955 172.168 C 198.878 176.192,200.503 165.940,198.647 161.497 C 197.657 159.128,195.030 158.594,188.268 159.386 M205.355 159.801 C 203.455 160.803,203.111 161.780,202.889 166.797 C 202.789 169.053,202.642 171.558,202.563 172.363 C 202.383 174.187,203.444 174.366,205.509 172.860 C 206.239 172.327,207.275 171.690,207.813 171.444 C 208.350 171.198,209.191 170.810,209.681 170.581 C 210.990 169.972,212.109 167.913,212.109 166.115 L 212.109 164.548 215.116 164.101 C 218.185 163.645,219.531 162.913,219.531 161.703 C 219.531 159.541,208.620 158.077,205.355 159.801 M208.612 161.933 C 211.245 164.736,210.011 168.889,206.445 169.225 L 205.273 169.336 205.158 165.820 C 205.006 161.186,206.417 159.597,208.612 161.933 M196.777 162.218 C 197.502 162.778,197.435 168.123,196.696 168.737 C 194.885 170.240,192.397 168.035,192.673 165.171 C 192.970 162.080,194.850 160.727,196.777 162.218 M154.102 182.489 C 157.613 184.387,157.775 185.204,157.795 201.116 C 157.810 212.497,157.729 214.505,157.263 214.326 C 155.670 213.715,135.123 213.928,134.489 214.562 C 133.684 215.367,133.268 218.229,133.232 223.213 L 133.203 227.089 132.258 226.201 C 130.450 224.503,130.424 224.191,130.547 205.635 C 130.683 185.170,130.702 185.073,134.961 182.350 C 136.567 181.324,152.156 181.437,154.102 182.489 M265.425 182.077 C 270.013 183.351,270.854 185.867,270.963 198.633 C 271.012 204.434,271.144 212.256,271.257 216.016 C 271.441 222.187,271.388 223.013,270.710 224.512 C 269.379 227.458,268.859 226.745,268.575 221.582 C 268.112 213.168,268.893 213.722,257.761 213.921 C 252.955 214.007,247.749 214.135,246.191 214.206 L 243.359 214.336 243.359 201.101 C 243.359 190.886,243.479 187.579,243.886 186.609 C 244.512 185.112,247.273 182.519,248.525 182.252 C 249.014 182.147,249.766 181.987,250.195 181.896 C 251.938 181.528,263.961 181.671,265.425 182.077 M249.294 183.798 C 248.682 184.241,248.431 184.765,248.513 185.428 L 248.633 186.406 256.934 186.465 C 264.601 186.519,265.234 186.471,265.234 185.840 C 265.234 184.043,263.967 183.594,258.887 183.590 C 256.255 183.588,253.223 183.488,252.148 183.366 C 250.679 183.201,249.972 183.308,249.294 183.798 M136.530 184.505 C 135.079 186.720,135.332 186.795,144.336 186.816 L 152.539 186.834 152.656 185.864 C 152.850 184.268,152.115 184.081,144.473 183.784 L 137.188 183.502 136.530 184.505 M185.938 188.281 C 185.938 189.580,185.774 190.236,185.449 190.240 C 184.351 190.253,174.335 195.403,166.406 200.032 C 165.010 200.847,163.428 201.621,162.891 201.752 L 161.914 201.989 161.979 198.358 C 162.035 195.174,162.132 194.710,162.760 194.592 C 164.624 194.241,173.481 191.146,179.102 188.881 C 186.619 185.852,185.938 185.912,185.938 188.281 M221.862 188.657 C 228.006 191.179,238.047 194.922,238.666 194.922 C 238.893 194.922,239.012 196.266,238.958 198.221 L 238.867 201.519 229.102 196.516 C 223.730 193.764,218.501 191.201,217.480 190.820 L 215.625 190.128 215.625 188.228 C 215.625 185.905,215.060 185.866,221.862 188.657 M186.328 201.692 L 186.328 203.775 184.668 204.182 C 183.141 204.556,163.839 209.605,162.500 209.980 C 162.029 210.112,161.914 209.711,161.914 207.938 C 161.914 206.326,162.072 205.677,162.500 205.531 C 163.646 205.139,185.360 199.648,185.840 199.629 C 186.172 199.616,186.328 200.276,186.328 201.692 M222.794 201.215 C 226.048 202.098,230.469 203.247,232.617 203.768 C 234.766 204.290,237.184 204.893,237.991 205.108 L 239.458 205.500 239.358 207.772 L 239.258 210.043 233.008 208.406 C 229.570 207.506,224.253 206.086,221.191 205.252 L 215.625 203.735 215.625 201.672 C 215.625 199.137,215.228 199.162,222.794 201.215 M151.563 218.531 C 165.737 218.808,170.165 219.962,175.226 224.697 C 179.157 228.373,184.038 235.667,181.977 234.784 C 181.073 234.397,168.263 231.884,160.938 230.658 C 158.896 230.316,154.854 229.453,151.953 228.740 C 144.699 226.958,139.536 225.959,139.218 226.277 C 137.680 227.814,150.859 231.342,172.461 235.176 C 176.113 235.824,180.396 236.715,181.979 237.156 C 193.485 240.360,207.102 240.139,222.070 236.505 C 224.219 235.984,227.822 235.287,230.078 234.956 C 246.339 232.573,261.379 228.811,261.642 227.062 C 261.791 226.067,258.702 226.497,250.167 228.660 C 247.144 229.426,240.640 230.770,235.714 231.646 C 225.174 233.520,221.530 234.228,220.631 234.575 C 219.208 235.125,222.675 229.342,225.688 226.139 C 231.509 219.951,235.171 218.891,252.051 218.508 L 264.063 218.236 264.067 224.841 C 264.069 228.473,264.180 232.104,264.313 232.910 L 264.555 234.375 262.844 234.376 C 261.903 234.377,259.551 234.821,257.617 235.363 C 252.220 236.875,237.139 240.117,231.250 241.031 C 228.350 241.481,223.604 242.274,220.703 242.793 C 208.566 244.966,199.734 245.489,191.016 244.553 C 183.445 243.739,159.022 239.063,148.828 236.475 C 145.068 235.521,140.792 234.631,139.325 234.498 C 136.858 234.275,136.675 234.195,136.879 233.437 C 137.000 232.986,137.101 229.342,137.104 225.338 L 137.109 218.059 139.551 218.201 C 140.894 218.280,146.299 218.428,151.563 218.531 M198.589 222.083 C 197.876 223.170,198.015 226.214,198.848 227.771 C 199.982 229.890,203.874 228.089,204.189 225.300 C 204.618 221.494,200.518 219.138,198.589 222.083 M99.795 249.247 L 101.599 251.620 94.590 258.915 C 84.200 269.730,77.983 275.704,76.812 275.998 C 74.752 276.515,73.016 274.389,73.599 272.064 C 73.737 271.517,77.434 267.405,81.940 262.787 C 86.392 258.225,91.694 252.778,93.723 250.684 C 98.088 246.177,97.556 246.303,99.795 249.247 M110.351 262.535 C 110.996 263.620,111.815 264.773,112.172 265.096 C 113.306 266.122,89.379 289.748,86.464 290.479 C 83.250 291.286,82.883 287.801,85.848 284.634 C 87.089 283.310,88.965 281.260,90.019 280.078 C 92.768 276.996,108.746 260.545,108.982 260.555 C 109.091 260.559,109.707 261.450,110.351 262.535 M122.615 274.817 C 123.130 275.572,124.161 276.726,124.906 277.380 L 126.261 278.570 120.095 284.891 C 101.451 304.002,98.998 306.037,97.114 303.955 C 95.039 301.662,95.266 301.276,104.309 291.751 C 108.874 286.942,114.562 280.861,116.949 278.237 C 121.952 272.738,121.419 273.060,122.615 274.817 " stroke="none" fill="#dedfdc" fill-rule="evenodd"></path><path id="path1" d="M309.375 67.960 C 308.883 68.271,308.771 70.004,308.675 78.794 L 308.560 89.258 306.721 91.145 C 305.710 92.183,304.072 93.717,303.081 94.554 L 301.280 96.076 297.922 92.862 L 294.565 89.648 294.293 79.197 C 293.982 67.297,294.176 67.876,290.561 68.047 L 288.086 68.164 287.983 80.491 L 287.880 92.819 289.144 94.727 C 289.840 95.777,291.890 98.140,293.701 99.978 L 296.993 103.320 297.283 107.617 C 297.815 115.500,298.110 150.316,297.693 155.943 C 296.468 172.455,291.237 181.584,279.414 187.844 C 277.094 189.073,275.213 190.289,275.234 190.547 C 275.256 190.805,275.300 191.807,275.332 192.773 C 275.403 194.905,275.838 194.991,279.339 193.568 C 287.007 190.452,293.580 184.239,297.606 176.301 C 302.658 166.339,302.994 163.851,303.504 132.617 C 303.693 121.016,304.063 109.590,304.326 107.227 L 304.804 102.930 309.604 98.233 C 312.245 95.650,314.575 93.089,314.784 92.541 C 315.284 91.226,314.894 68.731,314.359 68.066 C 313.899 67.494,310.237 67.416,309.375 67.960 M191.602 78.516 C 172.652 80.162,156.916 85.201,141.406 94.590 C 134.132 98.993,120.946 109.334,121.176 110.454 C 121.238 110.756,125.593 115.293,130.853 120.536 L 140.417 130.069 142.572 127.984 C 154.728 116.226,174.394 108.028,193.772 106.640 C 237.753 103.490,272.791 128.624,284.169 171.484 C 284.711 173.525,285.155 175.591,285.155 176.074 C 285.159 179.356,290.395 169.738,292.439 162.695 C 293.029 160.661,293.138 158.037,293.265 142.843 L 293.410 125.334 291.748 123.116 C 277.062 103.529,256.062 88.918,232.980 82.230 C 222.535 79.202,203.434 77.488,191.602 78.516 M192.389 130.789 C 192.278 130.899,192.188 131.732,192.188 132.640 C 192.188 134.640,192.433 134.766,196.321 134.766 L 199.219 134.766 199.223 136.035 C 199.234 139.332,199.617 140.234,201.005 140.234 C 202.599 140.234,202.760 139.982,203.023 137.083 L 203.234 134.766 205.621 134.760 C 209.521 134.752,209.824 134.582,209.687 132.484 L 209.570 130.694 201.080 130.641 C 196.410 130.611,192.499 130.678,192.389 130.789 M170.940 145.117 C 171.020 157.081,170.825 155.859,172.656 155.859 L 174.219 155.859 174.223 153.418 C 174.225 152.075,174.336 150.317,174.469 149.512 L 174.712 148.047 182.225 148.047 L 189.738 148.047 189.979 146.288 C 190.322 143.780,191.537 141.641,193.343 140.363 C 196.571 138.079,195.882 137.915,181.602 137.566 L 170.888 137.305 170.940 145.117 M220.117 137.512 C 206.552 137.888,205.255 138.142,208.055 139.873 C 209.914 141.022,211.649 143.816,211.960 146.164 L 212.210 148.047 220.168 148.047 L 228.125 148.047 228.125 151.335 C 228.125 155.618,228.234 155.859,230.179 155.859 L 231.758 155.859 231.506 152.051 C 231.368 149.956,231.253 145.737,231.252 142.676 C 231.250 137.610,231.188 137.115,230.566 137.176 C 230.190 137.212,225.488 137.364,220.117 137.512 M199.023 141.883 C 195.918 142.984,194.141 145.629,194.141 149.147 L 194.141 151.172 200.739 151.172 C 208.098 151.172,207.813 151.286,207.813 148.334 C 207.813 143.691,203.289 140.371,199.023 141.883 M246.875 152.307 C 239.860 152.545,239.172 152.698,237.624 154.359 C 236.372 155.701,236.055 156.825,235.739 161.045 L 235.454 164.844 240.123 164.844 C 250.003 164.844,255.078 168.173,255.078 174.654 L 255.078 176.563 258.203 176.563 L 261.328 176.563 261.328 166.977 C 261.328 152.019,261.135 151.822,246.875 152.307 M144.199 153.006 C 143.479 153.361,142.424 154.355,141.855 155.214 L 140.820 156.777 140.704 166.670 L 140.587 176.563 142.315 176.563 C 143.265 176.563,144.579 176.670,145.233 176.801 C 146.405 177.035,146.428 177.009,146.685 175.140 C 147.718 167.636,150.847 165.324,160.666 164.813 C 163.930 164.643,166.646 164.492,166.699 164.478 C 166.956 164.412,166.751 160.830,166.372 158.763 C 165.859 155.959,164.848 154.214,163.118 153.145 C 161.336 152.043,146.375 151.934,144.199 153.006 M160.866 154.057 C 162.529 155.085,160.835 155.392,152.441 155.582 L 146.094 155.726 146.094 154.849 C 146.094 154.366,146.313 153.882,146.582 153.774 C 147.325 153.473,160.338 153.731,160.866 154.057 M252.404 153.906 C 256.147 153.906,257.567 154.489,255.632 155.232 C 254.527 155.656,241.472 155.500,241.199 155.059 C 240.393 153.755,241.363 153.396,244.992 153.653 C 246.953 153.792,250.288 153.906,252.404 153.906 M190.713 154.499 C 177.139 156.322,173.472 160.685,180.973 166.088 C 182.516 167.199,183.984 166.793,183.984 165.256 C 183.984 164.502,184.215 164.060,184.668 163.941 C 185.219 163.797,185.193 163.754,184.533 163.717 C 183.305 163.649,182.158 162.228,182.667 161.403 C 183.758 159.633,193.669 158.286,196.596 159.510 C 198.808 160.435,199.219 161.792,199.219 168.174 L 199.219 173.482 200.879 173.362 L 202.539 173.242 202.795 167.969 C 203.222 159.154,204.529 158.151,213.987 159.379 C 219.063 160.038,220.749 161.485,218.502 163.253 C 217.752 163.843,217.646 164.063,218.111 164.063 C 218.466 164.063,218.750 164.375,218.750 164.766 C 218.750 166.943,220.188 166.819,222.820 164.414 C 226.199 161.326,225.418 158.768,220.410 156.521 C 215.387 154.266,200.163 153.230,190.713 154.499 M307.262 158.683 C 306.255 173.514,299.590 185.954,288.168 194.324 C 285.353 196.387,285.314 196.461,285.009 200.400 C 282.094 238.040,243.709 272.259,204.395 272.265 L 202.344 272.266 202.344 279.039 C 202.344 282.764,202.460 289.025,202.602 292.952 L 202.861 300.091 206.411 299.821 C 245.741 296.831,276.523 278.204,297.610 244.634 C 310.128 224.704,314.950 204.028,312.671 180.054 C 311.848 171.399,308.769 155.905,307.650 154.785 C 307.587 154.722,307.412 156.476,307.262 158.683 M205.885 161.621 C 205.118 162.244,205.053 162.617,205.158 165.820 L 205.273 169.336 206.445 169.225 C 209.469 168.940,209.862 168.501,209.697 165.580 C 209.481 161.756,207.830 160.042,205.885 161.621 M193.900 162.244 C 190.974 164.762,193.741 171.189,196.696 168.737 C 197.435 168.123,197.502 162.778,196.777 162.218 C 195.681 161.369,194.909 161.376,193.900 162.244 M155.469 170.361 C 152.257 171.642,149.977 176.950,152.637 176.955 C 157.199 176.965,161.028 180.731,162.879 187.031 C 163.847 190.326,163.340 190.256,168.984 187.875 C 172.939 186.207,181.608 183.050,183.355 182.643 C 184.483 182.380,184.484 182.377,184.257 179.959 C 183.728 174.328,181.407 171.875,176.609 171.875 C 174.311 171.875,170.037 171.222,169.336 170.763 C 169.121 170.623,169.824 170.404,170.898 170.276 C 171.973 170.149,169.160 170.028,164.648 170.008 C 160.016 169.987,156.020 170.141,155.469 170.361 M232.617 170.282 L 233.398 170.588 232.617 170.824 C 231.644 171.118,227.495 171.761,224.490 172.084 C 220.832 172.477,218.040 175.794,217.401 180.509 L 217.157 182.306 219.809 183.199 C 221.268 183.689,225.240 185.204,228.636 186.563 C 236.300 189.631,237.500 189.908,237.500 188.607 C 237.500 183.953,243.137 177.836,247.852 177.375 C 250.062 177.159,250.190 177.091,250.104 176.171 C 249.857 173.534,249.474 172.547,248.210 171.283 L 246.849 169.922 239.342 169.949 C 235.214 169.964,232.188 170.114,232.617 170.282 M134.961 182.350 C 130.702 185.073,130.683 185.170,130.547 205.635 C 130.424 224.191,130.450 224.503,132.258 226.201 L 133.203 227.089 133.232 223.213 C 133.268 218.229,133.684 215.367,134.489 214.562 C 135.123 213.928,155.670 213.715,157.263 214.326 C 157.729 214.505,157.810 212.497,157.795 201.116 C 157.770 181.395,158.139 181.934,144.531 181.728 C 136.795 181.611,136.040 181.660,134.961 182.350 M250.195 181.896 C 249.766 181.987,249.014 182.147,248.525 182.252 C 247.273 182.519,244.512 185.112,243.886 186.609 C 243.479 187.579,243.359 190.886,243.359 201.101 L 243.359 214.336 246.191 214.206 C 247.749 214.135,252.955 214.007,257.761 213.921 C 268.893 213.722,268.112 213.168,268.575 221.582 C 268.859 226.746,269.378 227.457,270.712 224.512 C 271.390 223.016,271.444 222.195,271.261 216.211 C 271.150 212.559,271.014 204.736,270.960 198.828 C 270.811 182.554,270.060 181.604,257.422 181.688 C 253.877 181.712,250.625 181.806,250.195 181.896 M258.887 183.590 C 263.967 183.594,265.234 184.043,265.234 185.840 C 265.234 186.471,264.601 186.519,256.934 186.465 L 248.633 186.406 248.513 185.428 C 248.325 183.900,249.745 183.095,252.148 183.366 C 253.223 183.488,256.255 183.588,258.887 183.590 M152.266 184.481 C 152.545 184.708,152.721 185.331,152.656 185.864 L 152.539 186.834 144.336 186.816 C 135.332 186.795,135.079 186.720,136.530 184.505 L 137.188 183.502 144.473 183.784 C 148.572 183.943,151.980 184.248,152.266 184.481 M179.102 188.881 C 173.481 191.146,164.624 194.241,162.760 194.592 C 162.132 194.710,162.035 195.174,161.979 198.358 L 161.914 201.989 162.891 201.752 C 163.428 201.621,165.010 200.847,166.406 200.032 C 174.335 195.403,184.351 190.253,185.449 190.240 C 185.774 190.236,185.938 189.580,185.938 188.281 C 185.938 185.912,186.619 185.852,179.102 188.881 M215.625 188.228 L 215.625 190.128 217.480 190.820 C 218.501 191.201,223.730 193.764,229.102 196.516 L 238.867 201.519 238.958 198.221 C 239.012 196.266,238.893 194.922,238.666 194.922 C 238.047 194.922,228.006 191.179,221.862 188.657 C 215.060 185.866,215.625 185.905,215.625 188.228 M174.219 202.489 C 168.096 204.052,162.822 205.421,162.500 205.531 C 162.072 205.677,161.914 206.326,161.914 207.938 C 161.914 209.711,162.029 210.112,162.500 209.980 C 163.839 209.605,183.141 204.556,184.668 204.182 L 186.328 203.775 186.328 201.692 C 186.328 199.146,187.666 199.058,174.219 202.489 M215.625 201.672 L 215.625 203.735 221.191 205.252 C 224.253 206.086,229.570 207.506,233.008 208.406 L 239.258 210.043 239.358 207.772 L 239.458 205.500 237.991 205.108 C 237.184 204.893,234.766 204.290,232.617 203.768 C 230.469 203.247,226.048 202.098,222.794 201.215 C 215.228 199.162,215.625 199.137,215.625 201.672 M137.104 225.338 C 137.101 229.342,137.000 232.986,136.879 233.437 C 136.675 234.195,136.858 234.275,139.325 234.498 C 140.792 234.631,145.068 235.521,148.828 236.475 C 159.022 239.063,183.445 243.739,191.016 244.553 C 199.734 245.489,208.566 244.966,220.703 242.793 C 223.604 242.274,228.350 241.481,231.250 241.031 C 237.139 240.117,252.220 236.875,257.617 235.363 C 259.551 234.821,261.903 234.377,262.844 234.376 L 264.555 234.375 264.313 232.910 C 264.180 232.104,264.069 228.473,264.067 224.841 L 264.063 218.236 252.051 218.508 C 235.171 218.891,231.509 219.951,225.688 226.139 C 222.675 229.342,219.208 235.125,220.631 234.575 C 221.530 234.228,225.174 233.520,235.714 231.646 C 240.640 230.770,247.144 229.426,250.167 228.660 C 258.702 226.497,261.791 226.067,261.642 227.062 C 261.379 228.811,246.339 232.573,230.078 234.956 C 227.822 235.287,224.219 235.984,222.070 236.505 C 207.102 240.139,193.485 240.360,181.979 237.156 C 180.396 236.715,176.113 235.824,172.461 235.176 C 150.859 231.342,137.680 227.814,139.218 226.277 C 139.536 225.959,144.699 226.958,151.953 228.740 C 154.854 229.453,158.896 230.316,160.938 230.658 C 168.263 231.884,181.073 234.397,181.977 234.784 C 184.038 235.667,179.157 228.373,175.226 224.697 C 170.165 219.962,165.737 218.808,151.563 218.531 C 146.299 218.428,140.894 218.280,139.551 218.201 L 137.109 218.059 137.104 225.338 M205.957 225.192 C 204.741 225.720,204.690 225.830,204.746 227.813 C 204.784 229.139,204.866 229.462,204.977 228.712 C 205.183 227.310,205.642 226.967,207.324 226.959 L 208.594 226.953 208.594 231.497 L 208.594 236.040 210.172 235.829 C 212.822 235.473,213.012 235.115,212.807 230.869 C 212.532 225.150,210.303 223.303,205.957 225.192 M191.139 225.760 C 188.182 227.034,188.278 236.328,191.249 236.328 C 192.572 236.328,192.969 235.068,192.969 230.866 C 192.969 226.432,193.079 226.146,194.613 226.586 C 196.413 227.102,197.209 228.032,197.386 229.828 C 197.474 230.717,197.519 230.347,197.485 229.005 C 197.452 227.663,197.249 226.389,197.035 226.175 C 196.484 225.624,192.161 225.320,191.139 225.760 " stroke="none" fill="#0c191e" fill-rule="evenodd"></path><path id="path2" d="M115.234 116.882 C 114.053 118.409,112.452 120.479,111.676 121.483 C 89.623 150.029,82.554 187.551,92.911 221.094 C 106.212 264.173,148.607 296.869,195.025 299.846 L 199.229 300.116 199.126 286.289 L 199.023 272.463 193.164 271.989 C 160.607 269.361,130.432 246.570,119.767 216.553 C 110.459 190.354,115.327 161.384,132.979 137.930 C 137.240 132.268,137.135 133.017,134.081 130.101 C 132.631 128.716,128.339 124.542,124.542 120.823 C 120.745 117.105,117.580 114.072,117.510 114.084 C 117.440 114.096,116.416 115.355,115.234 116.882 M249.512 155.354 C 249.995 155.447,250.786 155.447,251.270 155.354 C 251.753 155.261,251.357 155.185,250.391 155.185 C 249.424 155.185,249.028 155.261,249.512 155.354 M184.668 163.941 C 184.215 164.060,183.984 164.502,183.984 165.256 C 183.984 166.158,183.772 166.445,182.951 166.651 C 182.383 166.793,181.585 167.243,181.178 167.650 C 179.938 168.891,174.270 170.285,170.387 170.306 C 169.676 170.309,169.193 170.473,169.314 170.668 C 169.651 171.212,174.592 171.937,176.978 171.792 L 179.102 171.663 177.175 171.119 L 175.248 170.574 177.118 170.029 C 186.500 167.293,190.673 176.815,190.082 199.609 C 189.945 204.873,189.726 213.311,189.595 218.359 L 189.356 227.539 190.153 226.563 C 190.873 225.681,191.219 225.589,193.728 225.616 C 197.233 225.654,197.444 225.876,197.532 229.609 C 197.571 231.264,197.635 232.705,197.676 232.813 C 197.716 232.920,197.731 233.130,197.710 233.278 C 197.620 233.908,199.814 235.156,201.011 235.156 C 204.248 235.156,204.883 234.163,204.883 229.103 L 204.883 225.590 206.464 225.041 C 208.415 224.364,210.643 224.717,211.720 225.873 L 212.500 226.710 212.465 220.289 C 212.446 216.757,212.312 210.527,212.169 206.445 C 211.342 182.930,212.768 173.991,217.766 171.364 C 219.580 170.411,228.516 169.828,228.516 170.662 C 228.516 170.899,228.120 171.096,227.637 171.100 C 227.153 171.103,226.494 171.276,226.172 171.484 C 225.330 172.029,226.899 171.970,230.181 171.335 C 234.682 170.464,233.956 170.145,226.458 169.703 C 222.687 169.481,222.206 169.368,221.805 168.614 C 221.558 168.152,221.078 167.559,220.737 167.298 C 220.396 167.036,220.293 166.814,220.508 166.804 C 220.723 166.794,220.459 166.564,219.922 166.293 C 219.385 166.022,218.891 165.428,218.826 164.971 C 218.667 163.871,217.861 163.712,214.728 164.163 L 212.109 164.539 212.109 166.110 C 212.109 167.913,210.992 169.972,209.681 170.581 C 209.191 170.810,208.350 171.198,207.813 171.444 C 207.275 171.690,206.245 172.323,205.522 172.851 C 204.317 173.731,203.960 173.792,201.225 173.591 C 197.456 173.314,197.331 173.271,196.879 172.080 C 196.645 171.467,196.200 171.094,195.700 171.094 C 193.141 171.094,190.661 168.471,190.634 165.736 C 190.621 164.442,186.964 163.342,184.668 163.941 M203.744 222.330 C 205.228 225.199,204.018 227.964,201.104 228.363 C 198.973 228.656,198.544 228.164,198.170 225.001 C 197.717 221.181,202.072 219.095,203.744 222.330 M93.694 250.713 C 91.681 252.791,86.392 258.225,81.940 262.787 C 77.434 267.405,73.737 271.517,73.599 272.064 C 73.016 274.389,74.752 276.515,76.812 275.998 C 77.983 275.704,84.200 269.730,94.585 258.921 L 101.589 251.630 99.978 249.476 C 97.741 246.485,97.800 246.474,93.694 250.713 M102.631 266.889 C 90.105 279.617,83.594 286.846,83.594 288.024 C 83.594 289.348,85.268 290.780,86.464 290.479 C 89.106 289.817,113.350 266.102,112.287 265.220 C 111.988 264.971,111.254 263.996,110.657 263.053 C 108.988 260.415,109.013 260.403,102.631 266.889 M118.197 276.923 C 116.712 278.551,111.112 284.521,105.753 290.191 C 95.116 301.444,95.004 301.622,97.114 303.955 C 98.998 306.036,101.827 303.687,120.093 284.875 L 126.246 278.539 124.427 276.965 C 123.427 276.099,122.729 275.391,122.876 275.391 C 123.022 275.391,122.939 275.146,122.691 274.847 C 121.658 273.602,120.915 273.945,118.197 276.923 " stroke="none" fill="#e00b2f" fill-rule="evenodd"></path></g></svg>